<svg id="Layer_1" data-name="Layer 1" xmlns="http://www.w3.org/2000/svg" xmlns:xlink="http://www.w3.org/1999/xlink" viewBox="0 0 565.84 565.84"><defs><style>.cls-1{fill:none;}.cls-2{clip-path:url(#clip-path);}.cls-3{fill:#231f20;}</style><clipPath id="clip-path"><rect class="cls-1" width="565.84" height="565.84"/></clipPath></defs><title>Mamo logo</title><g class="cls-2"><path class="cls-3" d="M189.33,487.58v-5h.58q1,4.92,4.65,4.92a3.35,3.35,0,0,0,2.55-.94,3,3,0,0,0,.91-2.11,2.68,2.68,0,0,0-.8-2,9.9,9.9,0,0,0-2.91-1.68,22.27,22.27,0,0,1-2.83-1.41,4.36,4.36,0,0,1-1.5-1.58,4.25,4.25,0,0,1-.53-2.07,3.67,3.67,0,0,1,1.16-2.78,4.06,4.06,0,0,1,2.93-1.11,5.25,5.25,0,0,1,1.87.32,4.73,4.73,0,0,1,1.8,1.34,2.41,2.41,0,0,0,.6-1.37h.51v4.09h-.51a5.47,5.47,0,0,0-1.55-2.81,3.68,3.68,0,0,0-2.58-1,2.56,2.56,0,0,0-2.05.76,2.48,2.48,0,0,0-.65,1.65,2.43,2.43,0,0,0,.82,1.84,11.38,11.38,0,0,0,2.92,1.7,28.31,28.31,0,0,1,2.93,1.45,4.08,4.08,0,0,1,1.48,1.52,4.39,4.39,0,0,1,.55,2.23,4.3,4.3,0,0,1-1.34,3.27,5,5,0,0,1-3.57,1.25,5.44,5.44,0,0,1-4.29-2,3.72,3.72,0,0,0-.57,1.52Z"/><path class="cls-3" d="M209.24,475.86h-.53l.08-3.76H224l.08,3.76h-.5a5.91,5.91,0,0,0-.72-2.24,2,2,0,0,0-1-.84,7.38,7.38,0,0,0-1.81-.16h-2.52v11.05a19.93,19.93,0,0,0,.09,2.41,1.2,1.2,0,0,0,.47.85,2.63,2.63,0,0,0,1.43.28h.76v.53h-7.8v-.53h.81a2.62,2.62,0,0,0,1.38-.26,1.17,1.17,0,0,0,.51-.78,19.85,19.85,0,0,0,.1-2.5V472.62h-2.32a8.86,8.86,0,0,0-2,.15,1.86,1.86,0,0,0-1,.87,6.29,6.29,0,0,0-.7,2.22"/><path class="cls-3" d="M232.07,479.82a7.48,7.48,0,0,1,2.42-5.82,8.69,8.69,0,0,1,6-2.19,8.89,8.89,0,0,1,6.1,2.16,7.53,7.53,0,0,1,2.46,5.93,7.8,7.8,0,0,1-2.35,5.88,9.52,9.52,0,0,1-12.29,0,7.78,7.78,0,0,1-2.39-6m2.64.08q0,3.77,1.51,5.66a5.4,5.4,0,0,0,4.51,1.89,5.08,5.08,0,0,0,4.17-1.89,8.76,8.76,0,0,0,1.54-5.64,8.92,8.92,0,0,0-1.51-5.59,5.89,5.89,0,0,0-8.71-.05,8.88,8.88,0,0,0-1.51,5.62"/><path class="cls-3" d="M272.19,488.1l-11.07-14.66v10.85a7.11,7.11,0,0,0,.14,1.77,1.51,1.51,0,0,0,.75.79,3.84,3.84,0,0,0,1.87.36v.53h-5.83v-.53a4.26,4.26,0,0,0,1.7-.41,1.29,1.29,0,0,0,.7-.72,8.66,8.66,0,0,0,.11-1.79V476a11.15,11.15,0,0,0-.16-2.4,1.22,1.22,0,0,0-.53-.79,4.58,4.58,0,0,0-1.63-.18v-.52h4.62l9.26,12.23V475a3.49,3.49,0,0,0-.21-1.45,1.5,1.5,0,0,0-.87-.66,4.65,4.65,0,0,0-1.59-.25v-.52h5.68v.52a4.33,4.33,0,0,0-1.57.39,1.47,1.47,0,0,0-.72.72,4.68,4.68,0,0,0-.16,1.43V488.1Z"/><path class="cls-3" d="M296.19,482.87h.56l-.34,4.87h-13v-.53h.32a2.5,2.5,0,0,0,1.51-.31,1.5,1.5,0,0,0,.43-.79,18.1,18.1,0,0,0,.1-2.44V476a16.08,16.08,0,0,0-.11-2.36,1,1,0,0,0-.45-.78,3,3,0,0,0-1.48-.23v-.53H295l.37,3.9h-.54a6.19,6.19,0,0,0-.91-2.33,2.28,2.28,0,0,0-1.27-.86,11.22,11.22,0,0,0-2.38-.18h-2.17v6.56h1.66a4.54,4.54,0,0,0,1.6-.2,1,1,0,0,0,.6-.59,5.26,5.26,0,0,0,.14-1.55h.55v5.35h-.55a4.51,4.51,0,0,0-.22-1.75,1,1,0,0,0-.64-.57,5.17,5.17,0,0,0-1.42-.14h-1.72v3.71a8,8,0,0,0,.36,3.27c.24.32.88.49,1.92.49h1.17a5.57,5.57,0,0,0,2-.32,3.67,3.67,0,0,0,1.52-1.3,7.58,7.58,0,0,0,1.13-2.72"/><path class="cls-3" d="M328.27,482h-5.94l-.4,1a10.07,10.07,0,0,0-.9,2.82,1.24,1.24,0,0,0,.48,1.06,1.91,1.91,0,0,0,1.22.37v.53h-4.64v-.53a2.44,2.44,0,0,0,1.54-.74,8.79,8.79,0,0,0,1.23-2.4c0-.11.22-.57.55-1.34L326,471.88h.45l5.23,12.42.71,1.64a2.19,2.19,0,0,0,.66.87,2.43,2.43,0,0,0,1.22.4v.53h-6.14v-.53a4.54,4.54,0,0,0,1.52-.17.65.65,0,0,0,.4-.66,7.05,7.05,0,0,0-.52-1.51Zm-.19-.52-2.77-6.66-2.76,6.66Z"/><path class="cls-3" d="M358.6,487.73h-4.21a18.86,18.86,0,0,1-3.43-4.09c-.49-.71-1-1.39-1.53-2.05a8.08,8.08,0,0,0-1.1-1.18,1.65,1.65,0,0,0-.94-.22h-.62v3.47a22.2,22.2,0,0,0,.09,2.42,1.18,1.18,0,0,0,.47.85,2.58,2.58,0,0,0,1.43.28h.75v.52H342v-.52h.51a2.85,2.85,0,0,0,1.39-.25,1.17,1.17,0,0,0,.49-.8,17.71,17.71,0,0,0,.1-2.5V476a17.07,17.07,0,0,0-.1-2.42,1,1,0,0,0-.46-.74,3.48,3.48,0,0,0-1.55-.21h-.26v-.53l2.24-.12c1.49-.06,2.67-.1,3.55-.1a13.08,13.08,0,0,1,3.64.41,4.8,4.8,0,0,1,2.26,1.37,3.2,3.2,0,0,1,.87,2.26,3.49,3.49,0,0,1-1.13,2.61,5.64,5.64,0,0,1-3.33,1.35c.66.32,1.71,1.46,3.17,3.42a15.58,15.58,0,0,0,2.79,3.12,4.25,4.25,0,0,0,2.4.79Zm-11.83-8.07,1.79-.06a6.44,6.44,0,0,0,1.6-.26,2.87,2.87,0,0,0,1.11-.6,2.78,2.78,0,0,0,.66-1.05,4.59,4.59,0,0,0,.24-1.59,4,4,0,0,0-.82-2.64c-.55-.66-1.75-1-3.6-1-.28,0-.61,0-1,.05Z"/><path class="cls-3" d="M364.71,475.86h-.53l.08-3.76h15.18l.08,3.76H379a6.06,6.06,0,0,0-.73-2.24,2,2,0,0,0-1-.84,7.48,7.48,0,0,0-1.82-.16H373v11.05a19.93,19.93,0,0,0,.09,2.41,1.27,1.27,0,0,0,.46.85,2.65,2.65,0,0,0,1.43.28h.77v.53h-7.8v-.53h.8a2.64,2.64,0,0,0,1.39-.26,1.16,1.16,0,0,0,.5-.78,17.41,17.41,0,0,0,.11-2.5V472.62h-2.32a8.7,8.7,0,0,0-2,.15,1.84,1.84,0,0,0-1,.87,6.29,6.29,0,0,0-.7,2.22"/><rect class="cls-3" x="401.48" y="482.1" width="5.67" height="1.74"/><path class="cls-3" d="M38.25,423h1c5.42,0,6.6-1.65,6.6-16.75V359.31c0-3.77-.47-5.07-4.84-5.07H38.25v-.94H51.93l25.94,53.3a14.2,14.2,0,0,1,1.54,4.24H80a17.08,17.08,0,0,1,1.41-4.24l25.36-53.3h15.09v.94h-3c-5.07,0-5.43,2.24-5.43,7v45c0,15.1.6,16.75,6.25,16.75h2.13v.94H95.91V423h3.54c5.43,0,6-1.53,6-15.8V365.8c0-1.54,0-3.31.12-4.37h-.71c-.12.24-.71,1.89-1.65,4l-26.3,55.42-.23.7h-.24l-.24-.7L49.34,365.56a13.65,13.65,0,0,1-1.3-4.13h-.36a23.56,23.56,0,0,1,.12,3.31v42.45c0,14.27,1.06,15.8,6.49,15.8h3.07v.94H38.25Z"/><path class="cls-3" d="M182.46,423c.83,0,3.54-.36,6.37-6l4.36-8.85,21.7-50a20.7,20.7,0,0,0,1.77-5.3h2L243.78,417c1.89,4.71,2.48,6,5.78,6h.71v.94H231.05V423h2.24c1,0,3.28-.31,3.28-2.65a5.74,5.74,0,0,0-.45-2.07l-6-15.45H209l-11.32.21-2.48,5.81L192.49,417a6.82,6.82,0,0,0-.48,2.47c0,2.24,1.77,3.54,4.72,3.54H200v.94H182.46Zm27-21.94h19.92l-12.85-32.89a16.28,16.28,0,0,1-.94-5.79H215l-16.36,38.38Z"/><path class="cls-3" d="M311.11,423h.94c5.43,0,6.61-1.65,6.61-16.75V359.31c0-3.77-.47-5.07-4.84-5.07h-2.71v-.94h13.68l25.94,53.3a14.5,14.5,0,0,1,1.54,4.24h.58a17.2,17.2,0,0,1,1.42-4.24l25.35-53.3h15.1v.94h-3c-5.07,0-5.43,2.24-5.43,7v45c0,15.1.6,16.75,6.25,16.75h2.13v.94H368.78V423h3.53c5.42,0,6-1.53,6-15.8V365.8c0-1.54,0-3.31.12-4.37h-.71c-.11.24-.7,1.89-1.64,4l-26.3,55.42-.24.7h-.23l-.24-.7L322.2,365.56a13.65,13.65,0,0,1-1.3-4.13h-.36a23.56,23.56,0,0,1,.12,3.31v42.45c0,14.27,1.06,15.8,6.49,15.8h3.06v.94h-19.1Z"/><path class="cls-3" d="M457.56,388.55c0-19.92,15.57-36.08,34.91-36.08,20.87,0,34.9,14.39,34.9,36.08,0,19.93-15.68,36.21-34.9,36.21-21,0-34.91-14.51-34.91-36.21m61.21,1.89c0-19.93-11.91-36.2-26.65-36.2-15.57,0-26.07,13.09-26.07,32.55,0,19.92,12,36.2,26.77,36.2,15.57,0,25.95-13,25.95-32.55"/><path class="cls-3" d="M396.85,98c-9.27-3.79-20.52-3.7-29.55-7.22-.42-.16-.86-.29-1.26-.48-6.56-2.87-10.72-7.78-16.32-10.54a19.71,19.71,0,0,0-11.44-1.89,27.08,27.08,0,0,0-8.55,2.48A33.94,33.94,0,0,0,326.27,82c-4.33,2.4-7.32,6-9.8,10q-.57.91-1.11,1.86c-.29.51-.58,1-.86,1.52-1.71,3.13-3.79,5.78-5.49,8.92l0,.06c-.21.41-.45.81-.65,1.24-1,2-2,4-3,6l0,0c-8.54,2-25.41,10.13-52.18,39.8-41.17,45.66-57.82,56.66-57.82,56.66s5-.37,13-1.29c-9.72,6-17.88,10.71-20.18,11.95-.31.17,10.74.06,26.86-.83-17.57,22.19-35.51,47.67-55,73.33,1.1,1.33,25-26.41,30.3-29.8-5,8.57-18,31.19-8.3,40.79,1.49-30.05,22.33-46.14,44.09-64.43,3.19-2.68,15.24-12.58,29-23.14,21.4-2.38,43.48-6,58.77-11.51,12.8-4.6,20.79-12.56,25.67-21.47,10.36-18.93,11.24-48.41,11.87-51.28a50.91,50.91,0,0,1,4.91-15.22c.69-1.37,3.29-7.65,8.61-12a17.21,17.21,0,0,1,4.9-2.86,21.25,21.25,0,0,1,3.95-1.06,50,50,0,0,1,19.4,1A57.2,57.2,0,0,1,408,106.87,22.63,22.63,0,0,0,396.85,98"/></g></svg>