<?xml version="1.0" encoding="utf-8"?>
<!-- Generator: Adobe Illustrator 23.0.2, SVG Export Plug-In . SVG Version: 6.00 Build 0)  -->
<svg version="1.1" id="Layer_1" xmlns="http://www.w3.org/2000/svg" xmlns:xlink="http://www.w3.org/1999/xlink" x="0px" y="0px"
	 viewBox="0 0 90 72" style="enable-background:new 0 0 90 72;" xml:space="preserve">
<style type="text/css">
	.st0{fill:#FFFFFF;}
</style>
<g>
	<g>
		<g>
			<g>
				<path class="st0" d="M30.6,72h30.2c4.4,0,8.6-1.6,11.8-4.4l5-4.6c3.1-2.8,4.8-6.6,4.8-10.6c0-3.8-1.5-7.3-4.3-10.1L66.1,30.2
					c-0.9-0.8-2.2-1.3-3.6-1.3c-1.4,0-2.7,0.5-3.6,1.3c-0.6,0.5-1,1.2-1.3,2l-0.4,1.3L56,32.8c-2-1.4-5-1.2-6.7,0.4
					c-0.6,0.5-1,1.2-1.3,2l-0.4,1.3l-1.2-0.8c-1.9-1.4-5-1.2-6.7,0.4c-0.6,0.5-1,1.2-1.3,1.9l-0.5,1.5L31,33.3
					c-1-0.9-2.2-1.4-3.6-1.4s-2.7,0.5-3.6,1.4c-1,0.9-1.5,2-1.5,3.3s0.5,2.4,1.5,3.3L47,61l-15,2.1c-3,0.4-5.3,2.8-5.3,5.5
					C26.8,70.5,28.5,72,30.6,72z M32.2,64.1l16.1-2.3c0.2,0,0.4-0.2,0.5-0.3c0.1-0.2,0-0.4-0.1-0.5L24.6,39.1
					c-0.7-0.7-1.1-1.6-1.1-2.5c0-1,0.4-1.9,1.2-2.6c0.8-0.7,1.7-1,2.8-1s2,0.4,2.8,1l16,14.6c0.2,0.2,0.6,0.2,0.8,0
					c0.1-0.1,0.2-0.2,0.2-0.3c0-0.1-0.1-0.3-0.2-0.3l-6.6-6c-0.7-0.7-1.1-1.6-1.1-2.5s0.4-1.8,1.2-2.5c1.5-1.4,4.1-1.4,5.6,0l6.5,6
					c0.2,0.2,0.6,0.2,0.8,0c0.1-0.1,0.2-0.2,0.2-0.3c0-0.1-0.1-0.3-0.2-0.3L50,39c-0.7-0.7-1.1-1.6-1.1-2.5c0-1,0.4-1.9,1.2-2.5
					c1.5-1.4,4.1-1.4,5.6,0l2.6,2.4c0.1,0.1,0.3,0.2,0.4,0.4c0.1,0.1,0.2,0.2,0.3,0.2l0.1,0c0,0,0.1,0.1,0.2,0.1c0,0,0.1,0,0.2,0
					c0.1,0,0.2,0,0.3-0.1c0,0,0.1,0,0.1-0.1c0.1-0.1,0.2-0.2,0.2-0.3c0-0.1-0.1-0.3-0.2-0.3L59.6,36c-0.7-0.7-1.1-1.6-1.1-2.5
					c0-1,0.4-1.9,1.2-2.5c1.5-1.3,4.1-1.3,5.5,0l12,12c2.6,2.6,4,6,4,9.5c0,3.8-1.6,7.3-4.5,9.9l-5,4.6c-2.9,2.7-6.8,4.1-10.9,4.1
					H30.6c-1.5,0-2.6-1.1-2.6-2.4C27.9,66.4,29.8,64.5,32.2,64.1z"/>
			</g>
		</g>
	</g>
	<path class="st0" d="M39.6,32L39.6,32c0-0.1,0-0.3,0-0.4c-2.2-4.4-7-7.2-12.2-7.2C20,24.4,14,29.9,14,36.6c0,4.8,3.1,9.1,7.9,11.1
		c0.3,0.1,0.6,0,0.8-0.3c0-0.1,0.1-0.2,0-0.3c0-0.1-0.2-0.2-0.3-0.3c-4.4-1.8-7.2-5.8-7.2-10.2c0-6.1,5.5-11.2,12.3-11.2
		c4.8,0,9.2,2.6,11.1,6.6c0.1,0.3,0.5,0.4,0.8,0.3C39.4,32.2,39.5,32.1,39.6,32z"/>
	<g>
		<path class="st0" d="M46.4,32.3c0.1-0.1,0.1-0.2,0-0.4c-2.3-7.9-10.2-13.4-19.1-13.4c-10.9,0-19.8,8.1-19.8,18c0,8.1,6.1,15.3,14.7,17.4
			c0.3,0.1,0.6-0.1,0.7-0.3c0-0.1,0-0.3,0-0.4c-0.1-0.1-0.2-0.2-0.3-0.2c-8.2-2-13.9-8.7-13.9-16.4c0-9.4,8.4-17,18.7-17
			c8.4,0,15.9,5.2,18,12.6c0.1,0.3,0.4,0.4,0.7,0.3C46.2,32.5,46.4,32.4,46.4,32.3z"/>
	</g>
</g>
</svg>
