<?xml version="1.0" encoding="utf-8"?>
<!-- Generator: Adobe Illustrator 23.0.2, SVG Export Plug-In . SVG Version: 6.00 Build 0)  -->
<svg version="1.1" id="Layer_1" xmlns="http://www.w3.org/2000/svg" xmlns:xlink="http://www.w3.org/1999/xlink" x="0px" y="0px"
	 viewBox="0 0 90 78.6" style="enable-background:new 0 0 90 78.6;" xml:space="preserve">
<style type="text/css">
	.st0{fill:#FFFFFF;}
</style>
<g>
	<path class="st0" d="M21.6,32.4l-0.9-1.9l-0.9,1.9c-0.2,0.4-0.1,0.9,0.3,1.2c0.4,0.3,0.9,0.3,1.3,0C21.7,33.4,21.8,32.9,21.6,32.4z"/>
	<path class="st0" d="M19.8,37.8c-0.2,0.4-0.1,0.9,0.3,1.2c0.4,0.3,0.9,0.3,1.3,0s0.5-0.8,0.3-1.2l-0.9-1.9L19.8,37.8z"/>
	<path class="st0" d="M87.5,41.7c-0.3-0.4-0.8-0.6-1.3-0.6H8.9V28.5h12.8c0.2,0,0.4-0.2,0.4-0.4V26c0-0.2-0.2-0.4-0.4-0.4H8.9V24
		c0-0.2-0.2-0.4-0.4-0.4H6.3c-0.2,0-0.4,0.2-0.4,0.4v17.1H3.8c-0.5,0-1,0.2-1.3,0.6S2,42.6,2.1,43.1l6.7,34.1
		c0.2,0.8,0.9,1.4,1.7,1.4h68.8c0.8,0,1.5-0.6,1.7-1.4l6.7-34.1C87.9,42.6,87.8,42.1,87.5,41.7z M8.9,26.4h12.4v1.2H8.9V26.4z
		 M6.8,24.4H8v16.6H6.8V24.4z M80.1,77c-0.1,0.3-0.3,0.6-0.7,0.6H10.6c-0.3,0-0.6-0.2-0.7-0.6L3.2,42.9c0-0.2,0-0.4,0.2-0.6
		c0.1-0.2,0.3-0.3,0.5-0.3h82.3c0.2,0,0.4,0.1,0.5,0.3c0.1,0.2,0.2,0.4,0.2,0.6L80.1,77z"/>
</g>
</svg>
