<?xml version="1.0" encoding="utf-8"?>
<!-- Generator: Adobe Illustrator 23.0.2, SVG Export Plug-In . SVG Version: 6.00 Build 0)  -->
<svg version="1.1" id="Layer_1" xmlns="http://www.w3.org/2000/svg" xmlns:xlink="http://www.w3.org/1999/xlink" x="0px" y="0px"
	 viewBox="0 0 90 83.8" style="enable-background:new 0 0 90 83.8;" xml:space="preserve">
<style type="text/css">
	.st0{fill:#FFFFFF;}
</style>
<g>
	<path class="st0" d="M83.3,40.8H5.2c-0.3,0-0.6,0.3-0.6,0.6v41.6c0,0.3,0.3,0.6,0.6,0.6h43.2c19.6,0,35.5-15.9,35.5-35.5v-6.8
		C83.9,41.1,83.6,40.8,83.3,40.8z M82.9,41.9v2.2H5.6v-2.2H82.9z M48.4,82.7H5.6V45.1h77.3v3.1C82.9,67.3,67.4,82.7,48.4,82.7z"/>
	<path class="st0" d="M13.6,39.2c0.1,0,0.2,0,0.3-0.1l55-31.8C69,7.3,69,7.2,69.1,7.1s0-0.3-0.1-0.4c-1.2-2.1-4-2.9-6.1-1.6L14.8,32.8
		c-2.1,1.2-2.9,4-1.6,6.1C13.2,39.1,13.4,39.2,13.6,39.2z M15.3,33.7L63.4,5.9c0.5-0.3,1.1-0.5,1.7-0.5c1,0,2,0.5,2.7,1.3L13.8,38
		C13.2,36.4,13.8,34.6,15.3,33.7z"/>
	<path class="st0" d="M16,46.2C15,46,14,46.3,13.4,47c-0.7,0.7-1,1.7-0.8,2.6c0.2,1.2,1.1,2.1,2.3,2.3c0.2,0,0.4,0,0.6,0c0.8,0,1.5-0.3,2-0.8
		c0.7-0.7,1-1.7,0.8-2.6C18,47.3,17.1,46.4,16,46.2z M16.7,50.4c-0.4,0.4-1.1,0.6-1.7,0.5c-0.7-0.1-1.3-0.7-1.5-1.5
		c-0.1-0.6,0.1-1.2,0.5-1.7c0.4-0.4,0.8-0.5,1.3-0.5c0.1,0,0.3,0,0.4,0c0.7,0.1,1.3,0.7,1.5,1.5C17.4,49.3,17.2,49.9,16.7,50.4z"/>
</g>
</svg>
