<?xml version="1.0" encoding="utf-8"?>
<!-- Generator: Adobe Illustrator 23.1.1, SVG Export Plug-In . SVG Version: 6.00 Build 0)  -->
<svg version="1.1" id="Layer_1" xmlns="http://www.w3.org/2000/svg" xmlns:xlink="http://www.w3.org/1999/xlink" x="0px" y="0px"
	 viewBox="0 0 64 64" style="enable-background:new 0 0 64 64;" xml:space="preserve">
<style type="text/css">
	.st0{fill:#FFFFFF;}
</style>
<g>
	<path d="M32.27,32.4c-0.22-0.22-0.22-0.58,0-0.8l11.56-11.56c0.41-0.41,0.41-1.07,0-1.48c-0.41-0.41-1.07-0.41-1.48,0L30.79,30.12
		c-0.22,0.22-0.58,0.22-0.8,0L18.43,18.56c-0.41-0.41-1.07-0.41-1.48,0c-0.41,0.41-0.41,1.07,0,1.48L28.51,31.6
		c0.22,0.22,0.22,0.58,0,0.8L16.95,43.96c-0.41,0.41-0.41,1.07,0,1.48c0.2,0.2,0.47,0.31,0.74,0.31s0.54-0.1,0.74-0.31l11.56-11.56
		c0.22-0.22,0.58-0.22,0.8,0l11.56,11.56c0.2,0.2,0.47,0.31,0.74,0.31c0.27,0,0.54-0.1,0.74-0.31c0.41-0.41,0.41-1.07,0-1.48
		L32.27,32.4z"/>
</g>
</svg>
