<?xml version="1.0" encoding="utf-8"?>
<!-- Generator: Adobe Illustrator 23.0.2, SVG Export Plug-In . SVG Version: 6.00 Build 0)  -->
<svg version="1.1" id="Layer_1" xmlns="http://www.w3.org/2000/svg" xmlns:xlink="http://www.w3.org/1999/xlink" x="0px" y="0px"
	 viewBox="0 0 90 37.6" style="enable-background:new 0 0 90 37.6;" xml:space="preserve">
<style type="text/css">
	.st0{fill:#FFFFFF;}
</style>
<g>
	<path class="st0" d="M88.8,29.3H55V18.8c0-0.5-0.5-1-1-1H36.4V7.1c0-0.4-0.3-0.8-0.8-0.8h-1.9c-0.4,0-0.8,0.3-0.8,0.8v10.7H15.4
		c-0.6,0-1,0.5-1,1v10.4H1.1c-0.6,0-1,0.5-1,1v6.3c0,0.5,0.4,1,1,1h87.7c0.6,0,1-0.5,1-1v-6.3C89.8,29.7,89.4,29.3,88.8,29.3z
		 M34,7.4h1.4v10.4H34V7.4z M15.4,18.9H54l0,10.4H15.4L15.4,18.9z M1.2,36.6l0-6.3h14.3H54h34.8l0,6.3L1.2,36.6z"/>
	<path class="st0" d="M40.6,14h2.2c0.3,0,0.6-0.3,0.6-0.6V10c0-0.3-0.3-0.6-0.6-0.6h-2.2C40.2,9.4,40,9.7,40,10v3.3C40,13.7,40.2,14,40.6,14z
		 M41,10.4h1.4v2.5H41V10.4z"/>
	<path class="st0" d="M26.7,14h2.1c0.4,0,0.6-0.3,0.6-0.6V10c0-0.3-0.3-0.6-0.6-0.6h-2.1c-0.4,0-0.6,0.3-0.6,0.6v3.3C26,13.7,26.3,14,26.7,14z
		 M27.1,10.4h1.4v2.5h-1.4V10.4z"/>
</g>
</svg>
