<?xml version="1.0" encoding="utf-8"?>
<!-- Generator: Adobe Illustrator 23.1.1, SVG Export Plug-In . SVG Version: 6.00 Build 0)  -->
<svg version="1.1" id="Layer_1" xmlns="http://www.w3.org/2000/svg" xmlns:xlink="http://www.w3.org/1999/xlink" x="0px" y="0px"
	 viewBox="0 0 64 64" style="enable-background:new 0 0 64 64;" xml:space="preserve">
<style type="text/css">
	.st0{fill:#FFFFFF;}
</style>
<path d="M46.29,3.11H17.71c-7.42,0-13.45,6.28-13.45,14.01v29.77c0,7.73,6.03,14.01,13.45,14.01h28.58
	c7.42,0,13.45-6.28,13.45-14.01V17.12C59.74,9.39,53.71,3.11,46.29,3.11z M49.96,39.02c0,6.47-5.07,11.74-11.27,11.74H25.31
	c-6.21,0-11.27-5.28-11.27-11.74V25.08c0-6.47,5.07-11.74,11.27-11.74h13.38c6.21,0,11.27,5.28,11.27,11.74V39.02z"/>
<path d="M32.15,26.55c-2.91,0-5.29,2.47-5.29,5.51c0,3.04,2.38,5.51,5.29,5.51s5.29-2.47,5.29-5.51
	C37.44,29,35.06,26.55,32.15,26.55z"/>
<path d="M38.69,17.89H25.31c-3.81,0-6.9,3.22-6.9,7.21v13.94c0,3.97,3.09,7.19,6.9,7.19h13.38c3.81,0,6.93-3.22,6.93-7.19V25.1
	C45.62,21.11,42.5,17.89,38.69,17.89z M32.15,40.65c-4.55,0-8.25-3.85-8.25-8.59c0-4.74,3.7-8.59,8.25-8.59s8.25,3.85,8.25,8.59
	C40.39,36.8,36.7,40.65,32.15,40.65z M40.86,24.91c-1.08,0-1.97-0.91-1.97-2.05c0-1.14,0.87-2.05,1.97-2.05
	c1.08,0,1.97,0.91,1.97,2.05C42.84,24,41.96,24.91,40.86,24.91z"/>
</svg>
