<?xml version="1.0" encoding="utf-8"?>
<!-- Generator: Adobe Illustrator 23.0.2, SVG Export Plug-In . SVG Version: 6.00 Build 0)  -->
<svg version="1.1" id="Layer_1" xmlns="http://www.w3.org/2000/svg" xmlns:xlink="http://www.w3.org/1999/xlink" x="0px" y="0px"
	 viewBox="0 0 236.79 244.06" style="enable-background:new 0 0 236.79 244.06;" xml:space="preserve">
<style type="text/css">
	.st0{fill:#FFFFFF;}
</style>
<path class="st0" d="M176.8,0H59.89C26.79,0,0,27.72,0,61.76v120.55c0,34.13,26.79,61.76,59.89,61.76h40.18v-87.21H70.42v-34.82
	h29.66V95.49c0-30.29,17.51-46.96,44.2-46.96c12.82,0,26.21,2.37,26.21,2.37V80.6h-14.73c-14.54,0-19.04,9.27-19.04,18.84v22.59
	h32.43l-5.17,34.82h-27.27v87.21h40.18c33.1,0,59.89-27.62,59.89-61.76V61.76C236.79,27.62,209.91,0,176.8,0z"/>
</svg>
