<?xml version="1.0" encoding="utf-8"?>
<!-- Generator: Adobe Illustrator 23.0.2, SVG Export Plug-In . SVG Version: 6.00 Build 0)  -->
<svg version="1.1" id="Layer_1" xmlns="http://www.w3.org/2000/svg" xmlns:xlink="http://www.w3.org/1999/xlink" x="0px" y="0px"
	 viewBox="0 0 34.5 50.8" style="enable-background:new 0 0 34.5 50.8;" xml:space="preserve">
<style type="text/css">
	.st0{fill:#FFFFFF;}
</style>
<g>
	<g>
		<path class="st0" d="M17.3,8.1c-5,0-9.1,4.1-9.1,9.1s4.1,9.1,9.1,9.1s9.1-4.1,9.1-9.1S22.3,8.1,17.3,8.1z M17.3,24.4
			c-4,0-7.2-3.2-7.2-7.2s3.2-7.2,7.2-7.2s7.2,3.2,7.2,7.2S21.2,24.4,17.3,24.4z"/>
	</g>
	<g>
		<path class="st0" d="M17.3,0C7.7,0,0,7.7,0,17.3c0,2.9,0.7,5.7,2.1,8.2l13.4,24.3c0.4,0.6,1,1,1.8,1c0.7,0,1.4-0.4,1.8-1
			l13.4-24.3c1.3-2.5,2.1-5.3,2.1-8.2C34.5,7.7,26.8,0,17.3,0z M30.7,24.5L17.2,48.8L3.8,24.5C2.6,22.3,2,19.8,2,17.2
			C2,8.8,8.8,2,17.2,2s15.3,6.9,15.3,15.3C32.5,19.8,31.9,22.3,30.7,24.5z"/>
	</g>
</g>
</svg>
