<?xml version="1.0" encoding="utf-8"?>
<!-- Generator: Adobe Illustrator 23.1.1, SVG Export Plug-In . SVG Version: 6.00 Build 0)  -->
<svg version="1.1" id="Layer_1" xmlns="http://www.w3.org/2000/svg" xmlns:xlink="http://www.w3.org/1999/xlink" x="0px" y="0px"
	 viewBox="0 0 64 64" style="enable-background:new 0 0 64 64;" xml:space="preserve">
<style type="text/css">
	.st0{fill:#FFFFFF;}
</style>
<g>
	<path class="st0" d="M50.47,16.88h-4.61l-0.04,0.01c-0.07,0.02-0.1,0.03-0.14,0.03l-0.02,0l-0.02,0c-0.02,0-0.05-0.01-0.07-0.02
		l-6.68-0.02v-3.35c0-0.61-0.5-1.11-1.11-1.11H26.21c-0.61,0-1.11,0.5-1.11,1.11v3.35h-6.59l-0.04,0c-0.05,0.01-0.08,0.02-0.11,0.03
		l-0.02,0l-0.02,0c-0.03,0-0.05-0.01-0.08-0.02l-4.72-0.01c-0.61,0-1.11,0.5-1.11,1.11c0,0.61,0.5,1.11,1.1,1.11h3.94l1.78,31.44
		c0.03,0.58,0.52,1.04,1.1,1.04h23.31c0.59,0,1.07-0.46,1.1-1.04l1.76-31.44h3.94c0.61,0,1.11-0.5,1.11-1.11
		C51.57,17.38,51.08,16.88,50.47,16.88z M27.31,16.88v-2.24h9.37v2.24H27.31z M44.31,19.09l-1.69,30.27H21.4l-1.72-30.27H44.31z"/>
	<path class="st0" d="M25.9,46.8l0.07,0c0.29-0.02,0.56-0.15,0.76-0.37c0.2-0.22,0.3-0.5,0.28-0.8l-1.3-22.82
		c-0.03-0.59-0.57-1.07-1.17-1.04c-0.29,0.02-0.56,0.15-0.76,0.37c-0.2,0.22-0.3,0.5-0.28,0.8l1.29,22.82
		C24.83,46.34,25.32,46.8,25.9,46.8z"/>
	<polygon class="st0" points="23.51,22.94 23.51,22.94 23.51,22.94 	"/>
	<path class="st0" d="M37.99,46.8l0.06,0c0.58,0,1.07-0.46,1.1-1.04l1.29-22.82c0.02-0.3-0.08-0.58-0.28-0.8s-0.47-0.35-0.76-0.37
		c-0.28-0.02-0.56,0.06-0.78,0.25c-0.23,0.2-0.37,0.49-0.39,0.79l-1.29,22.82c-0.02,0.29,0.08,0.58,0.28,0.8
		C37.42,46.65,37.69,46.78,37.99,46.8z"/>
	<path class="st0" d="M32,46.8c0.61,0,1.11-0.5,1.11-1.11V22.88c0-0.61-0.5-1.11-1.11-1.11s-1.11,0.5-1.11,1.11V45.7
		C30.89,46.31,31.39,46.8,32,46.8z"/>
</g>
</svg>
