<?xml version="1.0" encoding="utf-8"?>
<!-- Generator: Adobe Illustrator 23.0.2, SVG Export Plug-In . SVG Version: 6.00 Build 0)  -->
<svg version="1.1" id="Layer_1" xmlns="http://www.w3.org/2000/svg" xmlns:xlink="http://www.w3.org/1999/xlink" x="0px" y="0px"
	 viewBox="0 0 43.5 43.8" style="enable-background:new 0 0 43.5 43.8;" xml:space="preserve">
<style type="text/css">
	.st0{fill:#FFFFFF;}
</style>
<g>
	<path class="st0" d="M42,32.6l-8.4-5.7c-1.5-1-3.5-0.7-4.6,0.7l-2.5,3.2c0,0-0.1,0-0.1,0l-0.5-0.3c-1.5-0.8-3.3-1.9-7.1-5.7
		s-4.8-5.7-5.6-7.2l-0.3-0.5c0,0,0-0.1,0-0.1l3.2-2.4c1.4-1.1,1.7-3.1,0.8-4.6l-5.6-8.5c-1-1.5-3-2-4.6-1.1L3.2,2.6
		c-1.3,0.8-2.3,2-2.7,3.5C-0.9,10.9,0,19.3,12,31.5c8,8.1,15.3,12.3,21.7,12.3c0,0,0,0,0.1,0c1.2,0,2.3-0.1,3.5-0.4
		c1.5-0.4,2.7-1.4,3.5-2.7l2.2-3.5C43.9,35.6,43.5,33.6,42,32.6z M41.3,36.2l-2.2,3.5c-0.5,0.9-1.4,1.5-2.4,1.8c-1,0.3-2,0.4-3,0.4
		c-5.8,0-12.9-4.1-20.4-11.8C2,18.6,1.1,10.9,2.3,6.6c0.3-1,0.9-1.9,1.9-2.4l3.6-2.1C8,1.9,8.2,1.9,8.5,1.9c0.5,0,1,0.2,1.3,0.7
		l5.6,8.5c0.4,0.7,0.3,1.5-0.3,2l-3.2,2.4c-0.8,0.6-1,1.7-0.5,2.6l0.3,0.5c0.9,1.6,1.9,3.6,5.9,7.6c4,4,5.9,5.1,7.5,6l0.5,0.3
		c0.9,0.5,2,0.3,2.6-0.5l2.5-3.1c0.5-0.6,1.4-0.8,2-0.3l8.4,5.7l0,0C41.6,34.6,41.8,35.5,41.3,36.2z"/>
	<path class="st0" d="M24.6,8c6.5,0.1,11.8,5.4,11.7,11.9c0,0.4,0.3,0.7,0.7,0.7c0.4,0,0.7-0.3,0.7-0.7c0-7.3-5.8-13.3-13.1-13.3
		c-0.4,0-0.7,0.3-0.7,0.7C23.9,7.7,24.2,8,24.6,8z"/>
	<path class="st0" d="M24.6,12.2c4.2,0,7.6,3.5,7.6,7.7c0,0.4,0.3,0.7,0.7,0.7c0.4,0,0.7-0.3,0.7-0.7c0-5-4-9.1-9-9.1
		c-0.4,0-0.7,0.3-0.7,0.7C23.9,11.9,24.2,12.2,24.6,12.2z"/>
	<path class="st0" d="M24.6,16.4c1.9,0,3.5,1.6,3.5,3.5c0,0.4,0.3,0.7,0.7,0.7s0.7-0.3,0.7-0.7c0-2.7-2.2-4.9-4.8-4.9
		c-0.4,0-0.7,0.3-0.7,0.7C23.9,16,24.2,16.4,24.6,16.4z"/>
</g>
</svg>
