<?xml version="1.0" encoding="utf-8"?>
<!-- Generator: Adobe Illustrator 23.0.2, SVG Export Plug-In . SVG Version: 6.00 Build 0)  -->
<svg version="1.1" id="Layer_1" xmlns="http://www.w3.org/2000/svg" xmlns:xlink="http://www.w3.org/1999/xlink" x="0px" y="0px"
	 viewBox="0 0 39.4 39.4" style="enable-background:new 0 0 39.4 39.4;" xml:space="preserve">
<style type="text/css">
	.st0{fill:#FFFFFF;}
</style>
<g>
	<g>
		<g>
			<g>
				<path class="st0" d="M39.1,20.1L39.1,20.1c-0.2-0.2-0.5-0.4-0.8-0.4c-0.6,0-1.1,0.5-1.1,1.1c-0.6,9.2-8.2,16.4-17.4,16.4
					c-9.6,0-17.4-7.8-17.5-17.4c0-4.7,1.8-9.1,5.1-12.4c3.3-3.3,7.7-5.1,12.4-5.1c4.2,0,8,1.2,11,3.5l0.6,0.5L28,6.9
					c-0.1,0-0.2,0.1-0.2,0.1c0,0.1-0.1,0.2,0,0.3L28,8.9C28,9,28.1,9,28.2,9.1c0.1,0,0.2,0.1,0.3,0l6-1.2c0.2,0,0.3-0.2,0.3-0.4V1.5
					c0-0.2-0.2-0.4-0.3-0.4h-1.5c-0.2,0-0.3,0.2-0.3,0.4v2.8L32,3.9C28.6,1.3,24.4,0,19.7,0C14.4,0,9.5,2.1,5.8,5.8S0,14.4,0,19.7
					s2.1,10.2,5.8,13.9c3.7,3.7,8.7,5.8,13.9,5.8s10.2-2,13.9-5.8c3.4-3.4,5.4-7.9,5.7-12.7C39.4,20.6,39.3,20.3,39.1,20.1z"/>
			</g>
		</g>
	</g>
	<g>
		<path class="st0" d="M20.1,9.9c-0.6,0-1,0.5-1,1v10.4c0,0.6,0.5,1,1,1h10.1c0.6,0,1-0.5,1-1c0-0.6-0.5-1-1-1h-9.1v-9.4
			C21.1,10.4,20.7,9.9,20.1,9.9z"/>
	</g>
</g>
</svg>
