<?xml version="1.0" encoding="utf-8"?>
<!-- Generator: Adobe Illustrator 23.0.2, SVG Export Plug-In . SVG Version: 6.00 Build 0)  -->
<svg version="1.1" id="Layer_1" xmlns="http://www.w3.org/2000/svg" xmlns:xlink="http://www.w3.org/1999/xlink" x="0px" y="0px"
	 viewBox="0 0 29.1 28.5" style="enable-background:new 0 0 29.1 28.5;" xml:space="preserve">
<style type="text/css">
	.st0{fill:#FFFFFF;}
</style>
<g>
	<path class="st0" d="M16.4,14.7c-0.2-0.2-0.2-0.6,0-0.8L28,2.3c0.4-0.4,0.4-1.1,0-1.5s-1.1-0.4-1.5,0L14.9,12.4
		c-0.2,0.2-0.6,0.2-0.8,0L2.6,0.8c-0.4-0.4-1.1-0.4-1.5,0s-0.4,1.1,0,1.5l11.6,11.6c0.2,0.2,0.2,0.6,0,0.8L1.1,26.2
		c-0.4,0.4-0.4,1.1,0,1.5C1.3,27.9,1.6,28,1.8,28s0.5-0.1,0.7-0.3l11.6-11.6c0.2-0.2,0.6-0.2,0.8,0l11.6,11.6
		c0.2,0.2,0.5,0.3,0.7,0.3s0.5-0.1,0.7-0.3c0.4-0.4,0.4-1.1,0-1.5L16.4,14.7z"/>
</g>
</svg>
