<?xml version="1.0" encoding="utf-8"?>
<!-- Generator: Adobe Illustrator 23.1.1, SVG Export Plug-In . SVG Version: 6.00 Build 0)  -->
<svg version="1.1" id="Layer_1" xmlns="http://www.w3.org/2000/svg" xmlns:xlink="http://www.w3.org/1999/xlink" x="0px" y="0px"
	 viewBox="0 0 64 64" style="enable-background:new 0 0 64 64;" xml:space="preserve">
<style type="text/css">
	.st0{fill:#FFFFFF;}
</style>
<path class="st0" d="M46.27,3.11H17.73c-8.07,0-14.62,6.55-14.62,14.62v28.54c0,8.09,6.55,14.62,14.62,14.62h28.54
	c8.09,0,14.62-6.55,14.62-14.62V17.73C60.89,9.66,54.34,3.11,46.27,3.11z M24.06,45.83h-7.05V24.63h7.05V45.83z M20.53,21.73h-0.05
	c-2.36,0-3.89-1.63-3.89-3.66c0-2.08,1.58-3.66,3.99-3.66s3.89,1.58,3.94,3.66C24.52,20.11,23,21.73,20.53,21.73z M49.46,45.83
	h-7.05V34.49c0-2.85-1.02-4.8-3.57-4.8c-1.94,0-3.11,1.31-3.61,2.58c-0.19,0.45-0.23,1.08-0.23,1.72v11.84h-7.05
	c0,0,0.09-19.2,0-21.21h7.05v3c0.94-1.44,2.61-3.5,6.35-3.5c4.63,0,8.12,3.03,8.12,9.54V45.83z"/>
</svg>
