<?xml version="1.0" encoding="utf-8"?>
<!-- Generator: Adobe Illustrator 23.1.1, SVG Export Plug-In . SVG Version: 6.00 Build 0)  -->
<svg version="1.1" id="Layer_1" xmlns="http://www.w3.org/2000/svg" xmlns:xlink="http://www.w3.org/1999/xlink" x="0px" y="0px"
	 viewBox="0 0 64 64" style="enable-background:new 0 0 64 64;" xml:space="preserve">
<style type="text/css">
	.st0{fill:#FFFFFF;}
</style>
<g>
	<g>
		<path class="st0" d="M32,15.73c-5.03,0-9.12,4.09-9.12,9.12c0,5.03,4.09,9.12,9.12,9.12c5.03,0,9.12-4.09,9.12-9.12
			C41.12,19.82,37.03,15.73,32,15.73z M32,32c-3.95,0-7.16-3.21-7.16-7.16s3.21-7.16,7.16-7.16s7.16,3.21,7.16,7.16S35.95,32,32,32z
			"/>
	</g>
	<g>
		<path class="st0" d="M32,7.6c-9.51,0-17.25,7.74-17.25,17.25c0,2.86,0.72,5.69,2.08,8.21l13.43,24.29
			c0.35,0.64,1.02,1.03,1.75,1.03c0.73,0,1.4-0.4,1.75-1.03l13.44-24.3c1.35-2.5,2.07-5.33,2.07-8.19C49.25,15.33,41.51,7.6,32,7.6z
			 M45.47,32.1l-13.5,24.29L18.54,32.11c-1.2-2.22-1.84-4.73-1.84-7.27c0-8.43,6.86-15.29,15.29-15.29
			c8.43,0,15.29,6.86,15.29,15.29C47.29,27.38,46.66,29.89,45.47,32.1z"/>
	</g>
</g>
</svg>
