<?xml version="1.0" encoding="utf-8"?>
<!-- Generator: Adobe Illustrator 23.1.1, SVG Export Plug-In . SVG Version: 6.00 Build 0)  -->
<svg version="1.1" id="Layer_1" xmlns="http://www.w3.org/2000/svg" xmlns:xlink="http://www.w3.org/1999/xlink" x="0px" y="0px"
	 viewBox="0 0 64 64" style="enable-background:new 0 0 64 64;" xml:space="preserve">
<style type="text/css">
	.st0{fill:#FFFFFF;}
</style>
<g>
	<path class="st0" d="M56.11,10.59H10.76c-0.55,0-1,0.45-1,1V45.6c0,0.55,0.45,1,1,1h5.66v5.22c0,0.34,0.17,0.66,0.46,0.85
		c0.17,0.1,0.35,0.15,0.54,0.15c0.14,0,0.29-0.03,0.43-0.1l12.68-6.12h25.58c0.56,0,1-0.45,1-1V11.59
		C57.11,11.03,56.67,10.59,56.11,10.59z M55.11,44.6H34.57h-4.51l-4.14,2l-7.5,3.63V46.6v-2h-2h-4.66V12.59h43.35V44.6z"/>
</g>
</svg>
