<?xml version="1.0" encoding="utf-8"?>
<!-- Generator: Adobe Illustrator 23.0.2, SVG Export Plug-In . SVG Version: 6.00 Build 0)  -->
<svg version="1.1" id="Layer_1" xmlns="http://www.w3.org/2000/svg" xmlns:xlink="http://www.w3.org/1999/xlink" x="0px" y="0px"
	 viewBox="0 0 47.7 34.3" style="enable-background:new 0 0 47.7 34.3;" xml:space="preserve">
<style type="text/css">
	.st0{fill:#FFFFFF;}
</style>
<g>
	<path class="st0" d="M46.1,0H1.5c0,0,0,0-0.1,0c0,0,0,0-0.1,0c-0.1,0-0.1,0-0.2,0c-0.5,0.1-1,0.5-1.1,1c0,0,0,0.1,0,0.1
		s0,0.1,0,0.1c0,0.1,0,0.1,0,0.2l0,0.1c0,0,0,0.1,0,0.1c0,0,0,0,0,0v31.1c0,0.9,0.7,1.6,1.6,1.6h44.5c0.9,0,1.6-0.7,1.6-1.6V1.6
		c0,0,0,0,0,0s0,0,0,0c0,0,0,0,0,0c0-0.1,0-0.2-0.1-0.4c0,0,0,0,0-0.1c0,0,0,0,0,0c0-0.1-0.1-0.3-0.2-0.4l0.1-0.1l0,0l-0.1,0.1
		C47.1,0.2,46.6,0,46.1,0z M2.5,1.8l43,0L45.3,2L23.7,19.5l-0.1,0L2.2,1.8L2.5,1.8z M45.9,32.5H1.8V3.8l21,17.3c0.5,0.5,1.4,0.5,2,0
		L45.9,3.8V32.5z"/>
</g>
</svg>
