<?xml version="1.0" encoding="utf-8"?>
<!-- Generator: Adobe Illustrator 23.0.2, SVG Export Plug-In . SVG Version: 6.00 Build 0)  -->
<svg version="1.1" id="图层_1" xmlns="http://www.w3.org/2000/svg" xmlns:xlink="http://www.w3.org/1999/xlink" x="0px" y="0px"
	 viewBox="0 0 290.99 117.58" style="enable-background:new 0 0 290.99 117.58;" xml:space="preserve">
<style type="text/css">
	.st0{fill:#E83927;}
</style>
<g>
	<path d="M-0.38,89.09h9.55c0.24,1.32,0.41,2.62,0.71,3.88c0.99,4.11,3.48,6.65,7.77,7.27c4.19,0.6,8.2,0.39,11.71-2.37
		c1.75-1.37,2.73-3.25,3.49-5.25c1.35-3.59,1.47-7.4,2.01-11.38c-2.82,1.89-5.54,3.38-8.63,4.16c-11.6,2.94-23.22-5.11-24.49-16.99
		c-0.72-6.68,0.29-12.94,4.52-18.39c5.15-6.63,12.06-9.24,20.33-8.8c4.95,0.26,8.89,2.49,12.42,6.14c0.24-1.82,0.45-3.39,0.67-5.03
		h10.08c-0.37,3.13-0.73,6.23-1.1,9.32c-1.38,11.27-2.77,22.54-4.16,33.8c-0.36,2.92-0.83,5.83-1.6,8.67
		c-2.16,7.92-7.46,12.57-15.38,14.28c-5.58,1.2-11.12,0.81-16.48-1.19C3.05,104.24-1.21,97.48-0.38,89.09 M38.16,62.39
		c-0.17-5.87-3-10.18-7.79-11.89c-5.59-1.99-11.23-0.66-14.94,3.72c-3.94,4.65-4.67,10.03-2.83,15.71c1.08,3.35,3.44,5.68,6.86,6.82
		C29.04,79.98,38.47,72.74,38.16,62.39"/>
	<path d="M89.64,47.38c0.23-1.72,0.44-3.37,0.66-5.06h10.1c-1.76,14.22-3.5,28.37-5.26,42.58H85.06c0.15-1.39,0.29-2.73,0.45-4.25
		c-1.22,0.84-2.25,1.63-3.35,2.31c-12.19,7.57-27.4,0.07-28.85-14.18c-0.72-7.04,0.28-13.68,4.7-19.43
		c4.74-6.19,11.21-8.54,18.86-8.14c4.72,0.25,8.57,2.24,11.83,5.54C88.94,46.99,89.11,47.34,89.64,47.38 M63.29,65.04
		c0.02,0.44,0,1.22,0.11,1.96c0.63,4.4,2.67,7.92,6.89,9.69c4.38,1.83,8.52,0.94,12.09-2.05c4.59-3.86,6.42-8.91,5.53-14.81
		c-0.7-4.59-3.11-8.04-7.66-9.54c-4.71-1.56-8.92-0.47-12.44,3.03C64.64,56.44,63.28,60.32,63.29,65.04"/>
	<path d="M182.5,84.92h-9.98c-0.23-1.39,0.43-2.7,0.24-4.27c-0.56,0.43-1.05,0.81-1.54,1.18c-8.27,6.15-18.96,5.38-25.65-1.9
		c-3.94-4.28-5.22-9.53-5.12-15.17c0.14-7.58,2.54-14.15,8.59-19.17c6.08-5.05,19.51-7.25,27.2,1.33c0.17,0.18,0.37,0.33,0.72,0.66
		c0.25-1.84,0.48-3.51,0.71-5.24h10.1C186.01,56.5,184.26,70.65,182.5,84.92 M150.64,64.99c0.02,0.41,0.03,1.18,0.1,1.93
		c0.85,8.64,9.56,13.28,17.06,9.09c5.42-3.03,8.55-9.79,7.45-16.26c-0.77-4.53-3.12-7.95-7.58-9.46c-4.62-1.56-8.82-0.55-12.35,2.85
		C152.07,56.27,150.66,60.18,150.64,64.99"/>
	<path d="M285.73,84.89h-10.1c0.15-1.41,0.29-2.73,0.46-4.35c-2.67,2.17-5.31,3.83-8.38,4.7c-10.28,2.93-20.71-3.02-23.2-13.41
		c-1.92-8-1-15.66,4.04-22.41c4.7-6.3,11.27-8.76,18.97-8.17c5.54,0.43,6.81,1.21,12.66,6.27c0.24-1.77,0.47-3.44,0.7-5.18h10.1
		C289.23,56.54,287.49,70.66,285.73,84.89 M253.88,65.13c0.02,0.46,0.01,1.13,0.1,1.78c0.58,4.42,2.62,7.96,6.81,9.75
		c4.41,1.89,8.61,0.99,12.22-2.07c4.57-3.88,6.39-8.93,5.47-14.84c-0.7-4.53-3.1-7.96-7.56-9.46c-4.68-1.58-8.92-0.53-12.46,2.95
		C255.18,56.44,253.82,60.43,253.88,65.13"/>
	<path d="M131.28,8.5h10.09c-3.13,25.49-6.26,50.91-9.38,76.39h-10.14C125,59.44,128.13,34.03,131.28,8.5"/>
	<path d="M112.95,8.54h10.09c-3.13,25.48-6.25,50.87-9.38,76.34h-10.14C106.67,59.41,109.8,34.03,112.95,8.54"/>
	<path d="M200.7,84.9h-10.13c1.75-14.22,3.5-28.36,5.25-42.57h10.07c-0.08,1-0.16,1.97-0.26,3.24c2.8-2.35,5.61-4.22,9.14-4.47
		c3.52-0.25,6.57,0.87,9.3,3.33c-1.1,1.42-2.18,2.81-3.26,4.2c-1.06,1.35-2.12,2.71-3.21,4.12c-1.2-0.9-2.35-1.72-3.73-2.12
		c-3.55-1.04-6.84,0.67-8.48,4.35c-1.57,3.53-1.89,7.33-2.36,11.1C202.24,72.31,201.49,78.54,200.7,84.9"/>
	<path d="M240.73,42.37c-1.76,14.21-3.5,28.33-5.26,42.52h-10.13c1.75-14.19,3.49-28.3,5.25-42.52H240.73z"/>
	<path d="M237.97,15.45c3.81,0.03,6.79,3.13,6.72,6.96c-0.08,3.78-3.08,6.78-6.79,6.79c-3.75,0.01-6.8-3.12-6.79-6.93
		C231.12,18.42,234.15,15.41,237.97,15.45 M242.13,22.25c-0.02-2.36-1.91-4.28-4.21-4.29c-2.35-0.01-4.33,2.01-4.31,4.4
		c0.02,2.31,1.98,4.29,4.25,4.3C240.24,26.66,242.15,24.69,242.13,22.25"/>
	<path class="st0" d="M242.13,22.25c0.02,2.44-1.89,4.41-4.26,4.4c-2.27-0.01-4.23-1.99-4.25-4.3c-0.02-2.38,1.96-4.41,4.31-4.4
		C240.22,17.97,242.11,19.89,242.13,22.25"/>
</g>
</svg>
