<?xml version="1.0" encoding="utf-8"?>
<!-- Generator: Adobe Illustrator 23.0.2, SVG Export Plug-In . SVG Version: 6.00 Build 0)  -->
<svg version="1.1" id="图层_1" xmlns="http://www.w3.org/2000/svg" xmlns:xlink="http://www.w3.org/1999/xlink" x="0px" y="0px"
	 viewBox="0 0 243.47 101.02" style="enable-background:new 0 0 243.47 101.02;" xml:space="preserve">
<style type="text/css">
	.st0{fill:#FFFFFF;}
	.st1{fill:#E83927;}
</style>
<path class="st0" d="M0.09,75.82h7.98c0.2,1.1,0.34,2.19,0.6,3.24c0.83,3.43,2.91,5.56,6.49,6.08c3.5,0.5,6.85,0.32,9.78-1.98
	c1.46-1.15,2.28-2.72,2.91-4.39c1.13-3,1.23-6.18,1.68-9.51c-2.35,1.58-4.63,2.82-7.21,3.48c-9.69,2.45-19.39-4.27-20.46-14.19
	c-0.6-5.58,0.24-10.81,3.77-15.36c4.3-5.54,10.07-7.72,16.98-7.35c4.13,0.22,7.42,2.08,10.38,5.13c0.2-1.52,0.38-2.83,0.56-4.2h8.42
	c-0.31,2.62-0.61,5.2-0.92,7.79c-1.16,9.41-2.31,18.82-3.48,28.23c-0.3,2.44-0.69,4.87-1.34,7.24c-1.81,6.62-6.23,10.5-12.85,11.93
	c-4.66,1.01-9.29,0.67-13.77-0.99C2.95,88.48-0.61,82.82,0.09,75.82 M32.28,53.52c-0.15-4.91-2.51-8.51-6.51-9.93
	c-4.67-1.66-9.38-0.55-12.48,3.11c-3.29,3.89-3.9,8.38-2.37,13.12c0.9,2.8,2.88,4.74,5.73,5.7C24.66,68.21,32.54,62.16,32.28,53.52"
	/>
<path class="st0" d="M75.28,40.98c0.19-1.43,0.37-2.81,0.55-4.23h8.44c-1.47,11.88-2.93,23.7-4.39,35.57h-8.43
	c0.12-1.16,0.24-2.28,0.38-3.55c-1.01,0.7-1.88,1.36-2.8,1.93c-10.18,6.32-22.89,0.06-24.1-11.84c-0.6-5.88,0.23-11.42,3.92-16.23
	c3.96-5.17,9.37-7.13,15.76-6.8c3.94,0.21,7.16,1.87,9.88,4.63C74.7,40.65,74.84,40.95,75.28,40.98 M53.27,55.73
	c0.02,0.37,0,1.01,0.09,1.64c0.53,3.68,2.23,6.62,5.76,8.09c3.66,1.53,7.11,0.79,10.1-1.72c3.83-3.23,5.36-7.44,4.62-12.37
	c-0.58-3.83-2.6-6.72-6.4-7.97c-3.93-1.3-7.45-0.39-10.39,2.53C54.4,48.55,53.26,51.79,53.27,55.73"/>
<path class="st0" d="M152.84,72.34h-8.34c-0.19-1.16,0.36-2.25,0.2-3.57c-0.47,0.36-0.87,0.68-1.29,0.98
	c-6.91,5.14-15.84,4.5-21.43-1.59c-3.29-3.58-4.36-7.96-4.28-12.67c0.11-6.34,2.12-11.82,7.17-16.01c5.08-4.22,16.3-6.06,22.72,1.11
	c0.14,0.15,0.31,0.28,0.6,0.55c0.21-1.54,0.4-2.93,0.59-4.38h8.44C155.78,48.6,154.31,60.42,152.84,72.34 M126.23,55.68
	c0.02,0.34,0.02,0.98,0.08,1.61c0.71,7.22,7.99,11.1,14.25,7.6c4.53-2.53,7.14-8.17,6.22-13.58c-0.65-3.78-2.61-6.64-6.33-7.9
	c-3.86-1.3-7.37-0.46-10.32,2.38C127.42,48.4,126.25,51.67,126.23,55.68"/>
<path class="st0" d="M239.08,72.31h-8.44c0.13-1.18,0.24-2.28,0.39-3.63c-2.23,1.81-4.44,3.2-7,3.93
	c-8.59,2.44-17.3-2.52-19.38-11.2c-1.6-6.68-0.84-13.08,3.37-18.72c3.93-5.26,9.41-7.32,15.84-6.82c4.62,0.36,5.69,1.01,10.57,5.23
	c0.2-1.48,0.39-2.87,0.59-4.33h8.44C242,48.63,240.54,60.43,239.08,72.31 M212.47,55.8c0.02,0.39,0.01,0.94,0.08,1.49
	c0.48,3.69,2.19,6.65,5.69,8.14c3.69,1.58,7.2,0.83,10.2-1.73c3.82-3.24,5.34-7.46,4.57-12.39c-0.59-3.79-2.59-6.65-6.32-7.9
	c-3.91-1.32-7.45-0.45-10.41,2.46C213.56,48.55,212.42,51.87,212.47,55.8"/>
<path class="st0" d="M110.06,8.5h8.43c-2.62,21.29-5.23,42.53-7.84,63.81h-8.47C104.81,51.05,107.43,29.83,110.06,8.5"/>
<path class="st0" d="M94.75,8.53h8.43c-2.61,21.28-5.22,42.49-7.83,63.77h-8.47C89.5,51.03,92.12,29.83,94.75,8.53"/>
<path class="st0" d="M168.05,72.32h-8.46c1.47-11.88,2.92-23.69,4.39-35.56h8.41c-0.07,0.83-0.14,1.65-0.22,2.71
	c2.34-1.97,4.69-3.52,7.64-3.73c2.94-0.21,5.49,0.73,7.77,2.78c-0.92,1.19-1.82,2.35-2.72,3.51c-0.88,1.13-1.77,2.26-2.69,3.44
	c-1-0.75-1.96-1.44-3.11-1.77c-2.96-0.87-5.72,0.56-7.08,3.63c-1.31,2.95-1.58,6.13-1.97,9.27C169.34,61.8,168.71,67,168.05,72.32"
	/>
<path class="st0" d="M201.48,36.79c-1.47,11.87-2.92,23.66-4.39,35.52h-8.46c1.46-11.85,2.92-23.64,4.38-35.52H201.48z"/>
<path class="st0" d="M199.18,14.31c3.18,0.03,5.67,2.61,5.61,5.82c-0.06,3.15-2.57,5.66-5.67,5.67c-3.13,0.01-5.68-2.61-5.67-5.79
	C193.46,16.79,195.99,14.28,199.18,14.31 M202.66,19.99c-0.02-1.97-1.59-3.58-3.52-3.59c-1.96-0.01-3.62,1.68-3.6,3.67
	c0.02,1.93,1.66,3.58,3.55,3.59C201.08,23.67,202.67,22.03,202.66,19.99"/>
<path class="st1" d="M202.66,19.99c0.01,2.04-1.58,3.68-3.56,3.68c-1.9-0.01-3.53-1.66-3.55-3.59c-0.02-1.99,1.63-3.68,3.6-3.67
	C201.06,16.41,202.64,18.02,202.66,19.99"/>
</svg>
