<?xml version="1.0" encoding="utf-8"?>
<!-- Generator: Adobe Illustrator 23.0.2, SVG Export Plug-In . SVG Version: 6.00 Build 0)  -->
<svg version="1.1" id="Layer_1" xmlns="http://www.w3.org/2000/svg" xmlns:xlink="http://www.w3.org/1999/xlink" x="0px" y="0px"
	 viewBox="0 0 64 64" style="enable-background:new 0 0 64 64;" xml:space="preserve">
<style type="text/css">
	.st0{fill:#9E9E9E;}
</style>
<path class="st0" d="M32,7.6c-9.5,0-17.3,7.7-17.3,17.3c0,2.9,0.7,5.7,2.1,8.2l13.4,24.3c0.3,0.6,1,1,1.8,1s1.4-0.4,1.8-1L47.2,33
	c1.3-2.5,2.1-5.3,2.1-8.2C49.3,15.3,41.5,7.6,32,7.6z M32,34c-5,0-9.1-4.1-9.1-9.1s4.1-9.1,9.1-9.1s9.1,4.1,9.1,9.1S37,34,32,34z"/>
</svg>
