<?xml version="1.0" encoding="utf-8"?>
<!-- Generator: Adobe Illustrator 23.1.1, SVG Export Plug-In . SVG Version: 6.00 Build 0)  -->
<svg version="1.1" id="Layer_1" xmlns="http://www.w3.org/2000/svg" xmlns:xlink="http://www.w3.org/1999/xlink" x="0px" y="0px"
	 viewBox="0 0 64 64" style="enable-background:new 0 0 64 64;" xml:space="preserve">
<style type="text/css">
	.st0{fill:#FFFFFF;}
</style>
<g>
	<path d="M50.79,51.11L41.55,39.4c3.82-3.48,6.24-8.48,6.24-14.04c0-10.48-8.53-19.01-19.01-19.01S9.77,14.87,9.77,25.36
		c0,10.48,8.53,19.01,19.01,19.01c4.2,0,8.07-1.38,11.22-3.7l9.22,11.68c0.2,0.25,0.49,0.38,0.79,0.38c0.22,0,0.44-0.07,0.62-0.21
		C51.06,52.17,51.14,51.54,50.79,51.11z M11.77,25.36c0-9.38,7.63-17.01,17.01-17.01c9.38,0,17.01,7.63,17.01,17.01
		s-7.63,17.01-17.01,17.01C19.41,42.37,11.77,34.74,11.77,25.36z"/>
</g>
</svg>
