<?xml version="1.0" encoding="utf-8"?>
<!-- Generator: Adobe Illustrator 23.1.1, SVG Export Plug-In . SVG Version: 6.00 Build 0)  -->
<svg version="1.1" id="Layer_1" xmlns="http://www.w3.org/2000/svg" xmlns:xlink="http://www.w3.org/1999/xlink" x="0px" y="0px"
	 viewBox="0 0 64 64" style="enable-background:new 0 0 64 64;" xml:space="preserve">
<style type="text/css">
	.st0{fill:#FFFFFF;}
</style>
<g>
	<path d="M49,27.96h-5.44V22.9c0-7.91-5.18-14.35-11.55-14.35S20.45,14.98,20.45,22.9v5.07H15c-0.55,0-1,0.45-1,1v25.49
		c0,0.55,0.45,1,1,1H49c0.55,0,1-0.45,1-1V28.96C50,28.41,49.55,27.96,49,27.96z M22.45,22.9c0-6.81,4.29-12.35,9.55-12.35
		s9.55,5.54,9.55,12.35v5.07H22.45V22.9z M48,53.46H16V29.96h4.44v3.49c0,0.55,0.45,1,1,1c0.55,0,1-0.45,1-1v-3.49h19.11v3.49
		c0,0.55,0.45,1,1,1s1-0.45,1-1v-3.49H48V53.46z"/>
</g>
</svg>
