<?xml version="1.0" encoding="utf-8"?>
<!-- Generator: Adobe Illustrator 23.0.2, SVG Export Plug-In . SVG Version: 6.00 Build 0)  -->
<svg version="1.1" id="Layer_1" xmlns="http://www.w3.org/2000/svg" xmlns:xlink="http://www.w3.org/1999/xlink" x="0px" y="0px"
	 viewBox="0 0 90 69.9" style="enable-background:new 0 0 90 69.9;" xml:space="preserve">
<style type="text/css">
	.st0{fill:#FFFFFF;}
</style>
<g>
	<path class="st0" d="M84.2,27H6.1c-0.4,0-0.8,0.3-0.8,0.8v41.4c0,0.4,0.3,0.8,0.8,0.8h43.1c19.6,0,35.5-15.9,35.5-35.5v-6.9
		C84.7,27.2,84.4,27,84.2,27z M83.6,34.4c0,19-15.5,34.5-34.5,34.5H6.4V28h77.3V34.4z"/>
	<path class="st0" d="M20.6,25.3h63.5c0.3,0,0.5-0.2,0.5-0.5c0-2.5-2-4.5-4.5-4.5H24.6c-2.5,0-4.5,2-4.5,4.5C20.1,25.1,20.4,25.3,20.6,25.3z
		 M24.6,21.4h55.6c1.7,0,3.2,1.3,3.4,2.9H21.2C21.5,22.7,22.9,21.4,24.6,21.4z"/>
</g>
</svg>
