<?xml version="1.0" encoding="utf-8"?>
<!-- Generator: Adobe Illustrator 23.0.2, SVG Export Plug-In . SVG Version: 6.00 Build 0)  -->
<svg version="1.1" id="Layer_1" xmlns="http://www.w3.org/2000/svg" xmlns:xlink="http://www.w3.org/1999/xlink" x="0px" y="0px"
	 viewBox="0 0 90 72" style="enable-background:new 0 0 90 72;" xml:space="preserve">
<style type="text/css">
	.st0{fill:#FFFFFF;}
</style>
<g>
	<path class="st0" d="M26.3,47.2v-1.8c0-0.4-0.4-0.8-0.8-0.8h-9c1.4-11.3,11-19.9,22.5-19.9h10.9c0.4,0,0.8-0.3,0.8-0.8v-5.3
		c0-0.4-0.3-0.8-0.8-0.8H39C23.9,18,11.1,29.7,9.6,44.7H7c-0.4,0-0.8,0.3-0.8,0.8v1.8v1v23c0,0.3,0.3,0.6,0.6,0.6h54.4
		c13.4,0,24.2-10.9,24.2-24.2v-0.5L26.3,47.2L26.3,47.2z M39,19.1h10.6v4.7H39c-12,0-22.1,8.9-23.6,20.7h-4.8
		C12.2,30.2,24.5,19.1,39,19.1z M7.3,45.7h17.9v1.5H7.3V45.7z M61.3,70.9h-54V48.3h18.2h59C84.2,60.8,73.9,70.9,61.3,70.9z"/>
	<path class="st0" d="M49.3,35.9L48.4,34l-0.9,1.9c-0.2,0.4-0.1,0.9,0.3,1.2c0.4,0.3,0.9,0.3,1.3,0C49.4,36.8,49.5,36.3,49.3,35.9z"/>
	<path class="st0" d="M47.5,41.3c-0.2,0.4-0.1,0.9,0.3,1.2c0.4,0.3,0.9,0.3,1.3,0s0.5-0.8,0.3-1.2l-0.9-1.9L47.5,41.3z"/>
</g>
</svg>
